<svg width="90" height="18" viewBox="0 0 90 18" fill="none" xmlns="http://www.w3.org/2000/svg">
<path fill-rule="evenodd" clip-rule="evenodd" d="M0.43857 5.43934C1.02333 4.85355 1.97141 4.85355 2.55617 5.43934L12.5386 15.4393C13.1234 16.0251 13.1234 16.9749 12.5386 17.5607C11.9539 18.1464 11.0058 18.1464 10.421 17.5607L0.438569 7.56066C-0.14619 6.97487 -0.14619 6.02513 0.43857 5.43934Z" fill="white"/>
<path fill-rule="evenodd" clip-rule="evenodd" d="M1.29924e-07 1.5C1.29924e-07 0.671573 0.670396 0 1.49737 0H11.4798C12.3068 0 12.9772 0.671573 12.9772 1.5C12.9772 2.32843 12.3068 3 11.4798 3H1.49737C0.670396 3 1.29924e-07 2.32843 1.29924e-07 1.5Z" fill="white"/>
<path fill-rule="evenodd" clip-rule="evenodd" d="M2.99474 8L2.99474 16.5C2.99474 17.3284 2.32435 18 1.49737 18C0.670396 18 9.33622e-07 17.3284 8.97474e-07 16.5L1.04125e-07 6.5C8.67663e-08 6.10218 0.157759 5.72064 0.43857 5.43934C0.719381 5.15804 1.10024 5 1.49737 5L11.4798 5C12.3068 5 12.9772 5.67157 12.9772 6.5C12.9772 7.32843 12.3068 8 11.4798 8L2.99474 8Z" fill="white"/>
<path d="M26.7484 14.8397L24.0087 9.99603H22.8345V14.8397H20.3439V2.40995H25.005C25.9657 2.40995 26.784 2.58209 27.4601 2.92637C28.1361 3.25878 28.6402 3.71585 28.9723 4.29757C29.3162 4.86741 29.4882 5.50849 29.4882 6.2208C29.4882 7.03995 29.251 7.78194 28.7766 8.44676C28.3021 9.09971 27.5965 9.55084 26.6595 9.80015L29.6305 14.8397H26.7484ZM22.8345 8.12623H24.916C25.5921 8.12623 26.0961 7.96596 26.4282 7.64542C26.7603 7.31301 26.9263 6.85594 26.9263 6.27422C26.9263 5.70438 26.7603 5.26512 26.4282 4.95645C26.0961 4.63591 25.5921 4.47565 24.916 4.47565H22.8345V8.12623Z" fill="white"/>
<path d="M40.903 9.6933C40.903 10.0495 40.8793 10.37 40.8319 10.6549H33.6267C33.686 11.3672 33.9351 11.9252 34.3739 12.3288C34.8127 12.7325 35.3524 12.9343 35.9928 12.9343C36.9179 12.9343 37.5762 12.5366 37.9676 11.7412H40.654C40.3693 12.6909 39.8237 13.4745 39.0172 14.0918C38.2107 14.6973 37.2204 15 36.0462 15C35.0974 15 34.2434 14.7922 33.4844 14.3767C32.7372 13.9493 32.1501 13.3498 31.7231 12.5782C31.308 11.8065 31.1004 10.9161 31.1004 9.907C31.1004 8.88602 31.308 7.9897 31.7231 7.21803C32.1382 6.44636 32.7194 5.85277 33.4666 5.43726C34.2138 5.02175 35.0737 4.81399 36.0462 4.81399C36.9832 4.81399 37.8193 5.01581 38.5547 5.41945C39.3019 5.82309 39.8771 6.39888 40.2804 7.1468C40.6955 7.88285 40.903 8.73169 40.903 9.6933ZM38.3234 8.98099C38.3115 8.33992 38.0803 7.82943 37.6296 7.44953C37.1789 7.05776 36.6274 6.86188 35.9751 6.86188C35.3583 6.86188 34.8365 7.05183 34.4095 7.43172C33.9944 7.79975 33.7394 8.31617 33.6445 8.98099H38.3234Z" fill="white"/>
<path d="M47.2398 7.02215H45.5141V14.8397H42.9879V7.02215H41.867V4.97426H42.9879V4.47565C42.9879 3.26472 43.3318 2.37434 44.0197 1.80449C44.7076 1.23464 45.7454 0.967527 47.133 1.00314V3.10445C46.5282 3.09258 46.1071 3.19349 45.8699 3.40718C45.6327 3.62088 45.5141 4.00671 45.5141 4.56468V4.97426H47.2398V7.02215Z" fill="white"/>
<path d="M53.2303 15C52.2815 15 51.4276 14.7922 50.6685 14.3767C49.9094 13.9493 49.3105 13.3498 48.8716 12.5782C48.4447 11.8065 48.2312 10.9161 48.2312 9.907C48.2312 8.89789 48.4506 8.00751 48.8894 7.23584C49.3401 6.46417 49.9509 5.87058 50.7219 5.45507C51.4928 5.02768 52.3527 4.81399 53.3015 4.81399C54.2503 4.81399 55.1102 5.02768 55.8811 5.45507C56.652 5.87058 57.2569 6.46417 57.6957 7.23584C58.1464 8.00751 58.3718 8.89789 58.3718 9.907C58.3718 10.9161 58.1405 11.8065 57.678 12.5782C57.2273 13.3498 56.6105 13.9493 55.8277 14.3767C55.0568 14.7922 54.191 15 53.2303 15ZM53.2303 12.8275C53.681 12.8275 54.1021 12.7206 54.4935 12.5069C54.8967 12.2814 55.2169 11.9489 55.4541 11.5097C55.6913 11.0704 55.81 10.5362 55.81 9.907C55.81 8.96912 55.5609 8.25088 55.0627 7.75226C54.5765 7.24178 53.9775 6.98653 53.2659 6.98653C52.5543 6.98653 51.9553 7.24178 51.4691 7.75226C50.9946 8.25088 50.7574 8.96912 50.7574 9.907C50.7574 10.8449 50.9887 11.569 51.4513 12.0795C51.9257 12.5782 52.5187 12.8275 53.2303 12.8275Z" fill="white"/>
<path d="M66.0341 14.8397L62.6895 10.6371V14.8397H60.1988V1.66203H62.6895V9.15907L65.9985 4.97426H69.2364L64.8955 9.9248L69.272 14.8397H66.0341Z" fill="white"/>
<path d="M79.8926 4.97426V14.8397H77.3842V13.5932C77.0639 14.0206 76.6429 14.3589 76.121 14.6082C75.611 14.8457 75.0536 14.9644 74.4487 14.9644C73.6778 14.9644 72.9958 14.8041 72.4028 14.4836C71.8098 14.1512 71.3413 13.6704 70.9974 13.0412C70.6653 12.4001 70.4992 11.6403 70.4992 10.7618V4.97426H72.9899V10.4056C72.9899 11.1892 73.1856 11.7946 73.577 12.222C73.9684 12.6375 74.5021 12.8453 75.1781 12.8453C75.866 12.8453 76.4057 12.6375 76.7971 12.222C77.1885 11.7946 77.3842 11.1892 77.3842 10.4056V4.97426H79.8926Z" fill="white"/>
<path d="M86.1217 15C85.3152 15 84.5917 14.8575 83.9512 14.5726C83.3108 14.2758 82.8008 13.8781 82.4212 13.3795C82.0536 12.8809 81.8519 12.3288 81.8163 11.7234H84.3248C84.3723 12.1033 84.5561 12.4179 84.8763 12.6672C85.2084 12.9165 85.6176 13.0412 86.1039 13.0412C86.5783 13.0412 86.9459 12.9462 87.2069 12.7562C87.4797 12.5663 87.6161 12.3229 87.6161 12.0261C87.6161 11.7056 87.45 11.4681 87.1179 11.3138C86.7977 11.1476 86.2818 10.9695 85.5701 10.7796C84.8348 10.6015 84.2299 10.4175 83.7555 10.2275C83.293 10.0376 82.8897 9.74673 82.5458 9.35496C82.2137 8.96319 82.0476 8.43489 82.0476 7.77007C82.0476 7.22397 82.2018 6.72535 82.5102 6.27422C82.8304 5.82309 83.2811 5.46694 83.8623 5.20576C84.4553 4.94458 85.1491 4.81399 85.9437 4.81399C87.1179 4.81399 88.0549 5.11079 88.7547 5.70438C89.4544 6.2861 89.8399 7.07557 89.911 8.0728H87.5271C87.4915 7.68103 87.3255 7.37237 87.029 7.1468C86.7443 6.90936 86.3589 6.79065 85.8726 6.79065C85.4219 6.79065 85.072 6.87375 84.823 7.03995C84.5857 7.20616 84.4671 7.43766 84.4671 7.73446C84.4671 8.06687 84.6332 8.32211 84.9653 8.50019C85.2974 8.66639 85.8133 8.83853 86.513 9.01661C87.2247 9.19469 87.8118 9.3787 88.2743 9.56865C88.7369 9.7586 89.1342 10.0554 89.4663 10.459C89.8102 10.8508 89.9881 11.3732 90 12.0261C90 12.596 89.8399 13.1064 89.5196 13.5576C89.2113 14.0087 88.7606 14.3649 88.1676 14.626C87.5864 14.8753 86.9044 15 86.1217 15Z" fill="white"/>
</svg>
